<svg xmlns="http://www.w3.org/2000/svg" width="160" height="160" viewBox="0 0 160 160" role="img" aria-labelledby="title description">
  <title id="title">FuseDB mark</title>
  <desc id="description">A layered database with a fuse-shaped data path.</desc>
  <defs>
    <linearGradient id="body" x1="28" y1="26" x2="132" y2="134" gradientUnits="userSpaceOnUse">
      <stop stop-color="#38BDF8"/>
      <stop offset="1" stop-color="#4F46E5"/>
    </linearGradient>
    <linearGradient id="spark" x1="92" y1="21" x2="129" y2="57" gradientUnits="userSpaceOnUse">
      <stop stop-color="#FDE047"/>
      <stop offset="1" stop-color="#F97316"/>
    </linearGradient>
  </defs>
  <rect width="160" height="160" rx="36" fill="#0B1020"/>
  <path d="M28 51c0-13 23-23 52-23s52 10 52 23v58c0 13-23 23-52 23s-52-10-52-23V51Z" fill="url(#body)"/>
  <ellipse cx="80" cy="51" rx="43" ry="15" fill="#CFFAFE" fill-opacity=".92"/>
  <path d="M37 77c8 8 24 13 43 13s35-5 43-13M37 103c8 8 24 13 43 13 13 0 25-2 34-7" fill="none" stroke="#E0E7FF" stroke-width="6" stroke-linecap="round" opacity=".9"/>
  <path d="M85 20h22l-8 15h16L91 66l7-23H82l3-23Z" fill="url(#spark)" stroke="#FFF7CC" stroke-width="2" stroke-linejoin="round"/>
</svg>
